<svg width="24" height="24" viewBox="0 0 24 24" fill="none" xmlns="http://www.w3.org/2000/svg">
<path fill-rule="evenodd" clip-rule="evenodd" d="M19 6H5C4.44772 6 4 6.44772 4 7V16.0859L6.5858 13.5001C7.36685 12.7191 8.63318 12.7191 9.41423 13.5001L10.4328 14.5187L13.9694 10.2748C14.7651 9.31999 16.2298 9.31449 17.0326 10.2633L20 13.7702V7C20 6.44771 19.5523 6 19 6ZM20 16.8664L15.5059 11.5552L11.9693 15.7991C11.2164 16.7026 9.85021 16.7645 9.0186 15.9329L8.00001 14.9144L4.91771 17.9967C4.94485 17.9989 4.97229 18 5 18H19C19.5523 18 20 17.5523 20 17V16.8664ZM5 4C3.34315 4 2 5.34315 2 7V17C2 18.6569 3.34315 20 5 20H19C20.6569 20 22 18.6569 22 17V7C22 5.34315 20.6569 4 19 4H5ZM7.00017 11.0002C8.10323 11.0002 9.0001 10.1032 9.0001 9.00011C9.0001 7.89706 8.10323 7 7.00017 7C5.89712 7 5.00006 7.89706 5.00006 9.00011C5.00006 10.1032 5.89712 11.0002 7.00017 11.0002Z" fill="#49454F"/>
</svg>
