<svg width="49" height="48" viewBox="0 0 49 48" fill="none" xmlns="http://www.w3.org/2000/svg">
<g clip-path="url(#clip0_2020_112)">
<path fill-rule="evenodd" clip-rule="evenodd" d="M22.5 13C22.5 12.4477 22.9477 12 23.5 12H25.5C26.0523 12 26.5 12.4477 26.5 13V13.1814C30.9717 14.0028 34.4972 17.5283 35.3186 22H35.5C36.0523 22 36.5 22.4477 36.5 23V25C36.5 25.5523 36.0523 26 35.5 26H35.3186C34.4972 30.4717 30.9717 33.9972 26.5 34.8186V35C26.5 35.5523 26.0523 36 25.5 36H23.5C22.9477 36 22.5 35.5523 22.5 35V34.8186C18.0283 33.9972 14.5028 30.4717 13.6814 26H13.5C12.9477 26 12.5 25.5523 12.5 25V23C12.5 22.4477 12.9477 22 13.5 22H13.6814C14.5028 17.5283 18.0283 14.0028 22.5 13.1814V13ZM22.5238 15.2177C19.1398 15.9758 16.4758 18.6398 15.7177 22.0238C16.1653 22.1231 16.5 22.5225 16.5 23V25C16.5 25.4775 16.1653 25.8769 15.7177 25.9762C16.4758 29.3602 19.1398 32.0242 22.5238 32.7823C22.6231 32.3347 23.0225 32 23.5 32H25.5C25.9775 32 26.3769 32.3347 26.4762 32.7823C29.8602 32.0242 32.5242 29.3602 33.2823 25.9762C32.8347 25.8769 32.5 25.4775 32.5 25V23C32.5 22.5225 32.8347 22.1231 33.2823 22.0238C32.5242 18.6398 29.8602 15.9758 26.4762 15.2177C26.3769 15.6653 25.9775 16 25.5 16H23.5C23.0225 16 22.6231 15.6653 22.5238 15.2177Z" fill="#CAC4D0"/>
</g>
<defs>
<clipPath id="clip0_2020_112">
<rect width="24" height="24" fill="white" transform="translate(12.5 12)"/>
</clipPath>
</defs>
</svg>
