<svg width="49" height="48" viewBox="0 0 49 48" fill="none" xmlns="http://www.w3.org/2000/svg">
<g clip-path="url(#clip0_2020_73)">
<path fill-rule="evenodd" clip-rule="evenodd" d="M14.5 14V16H16.5V14H14.5ZM13.5 12C12.9477 12 12.5 12.4477 12.5 13V17C12.5 17.5523 12.9477 18 13.5 18H14.5V30H13.5C12.9477 30 12.5 30.4477 12.5 31V35C12.5 35.5523 12.9477 36 13.5 36H17.5C18.0523 36 18.5 35.5523 18.5 35V34H30.5V35C30.5 35.5523 30.9477 36 31.5 36H35.5C36.0523 36 36.5 35.5523 36.5 35V31C36.5 30.4477 36.0523 30 35.5 30H34.5V18H35.5C36.0523 18 36.5 17.5523 36.5 17V13C36.5 12.4477 36.0523 12 35.5 12H31.5C30.9477 12 30.5 12.4477 30.5 13V14H18.5V13C18.5 12.4477 18.0523 12 17.5 12H13.5ZM18.5 16V17C18.5 17.5523 18.0523 18 17.5 18H16.5V30H17.5C18.0523 30 18.5 30.4477 18.5 31V32H30.5V31C30.5 30.4477 30.9477 30 31.5 30H32.5V18H31.5C30.9477 18 30.5 17.5523 30.5 17V16H18.5ZM32.5 14V16H34.5V14H32.5ZM32.5 34V32H34.5V34H32.5ZM14.5 32V34H16.5V32H14.5Z" fill="#CAC4D0"/>
</g>
<defs>
<clipPath id="clip0_2020_73">
<rect width="24" height="24" fill="white" transform="translate(12.5 12)"/>
</clipPath>
</defs>
</svg>
