<svg width="49" height="48" viewBox="0 0 49 48" fill="none" xmlns="http://www.w3.org/2000/svg">
<g clip-path="url(#clip0_2020_79)">
<path fill-rule="evenodd" clip-rule="evenodd" d="M13.5 25C12.9477 25 12.5 24.5523 12.5 24C12.5 23.4477 12.9477 23 13.5 23L15.5 23C16.0523 23 16.5 23.4477 16.5 24C16.5 24.5523 16.0523 25 15.5 25L13.5 25ZM18.5 25C17.9477 25 17.5 24.5523 17.5 24C17.5 23.4477 17.9477 23 18.5 23L20.5 23C21.0523 23 21.5 23.4477 21.5 24C21.5 24.5523 21.0523 25 20.5 25L18.5 25ZM22.5 24C22.5 24.5523 22.9477 25 23.5 25L25.5 25C26.0523 25 26.5 24.5523 26.5 24C26.5 23.4477 26.0523 23 25.5 23L23.5 23C22.9477 23 22.5 23.4477 22.5 24ZM28.5 25C27.9477 25 27.5 24.5523 27.5 24C27.5 23.4477 27.9477 23 28.5 23L30.5 23C31.0523 23 31.5 23.4477 31.5 24C31.5 24.5523 31.0523 25 30.5 25L28.5 25ZM32.5 24C32.5 24.5523 32.9477 25 33.5 25L35.5 25C36.0523 25 36.5 24.5523 36.5 24C36.5 23.4477 36.0523 23 35.5 23L33.5 23C32.9477 23 32.5 23.4477 32.5 24ZM13.9 15.2C12.9111 13.8815 13.8519 12 15.5 12L33.5 12C35.1481 12 36.0888 13.8815 35.1 15.2L30.6 21.2C30.2223 21.7036 29.6295 22 29 22L20 22C19.3705 22 18.7777 21.7036 18.4 21.2L13.9 15.2ZM15.5 14L20 20L29 20L33.5 14L15.5 14ZM15.5 36C13.8519 36 12.9111 34.1185 13.9 32.8L18.4 26.8C18.7777 26.2964 19.3705 26 20 26L29 26C29.6295 26 30.2223 26.2964 30.6 26.8L35.1 32.8C36.0888 34.1185 35.1481 36 33.5 36L15.5 36ZM20 28L15.5 34L33.5 34L29 28L20 28Z" fill="#CAC4D0"/>
</g>
<defs>
<clipPath id="clip0_2020_79">
<rect width="24" height="24" fill="white" transform="translate(12.5 12)"/>
</clipPath>
</defs>
</svg>
