<svg width="49" height="48" viewBox="0 0 49 48" fill="none" xmlns="http://www.w3.org/2000/svg">
<g clip-path="url(#clip0_2020_76)">
<path fill-rule="evenodd" clip-rule="evenodd" d="M23.5 13C23.5 12.4477 23.9477 12 24.5 12C25.0523 12 25.5 12.4477 25.5 13V15C25.5 15.5523 25.0523 16 24.5 16C23.9477 16 23.5 15.5523 23.5 15V13ZM23.5 18C23.5 17.4477 23.9477 17 24.5 17C25.0523 17 25.5 17.4477 25.5 18V20C25.5 20.5523 25.0523 21 24.5 21C23.9477 21 23.5 20.5523 23.5 20V18ZM24.5 22C23.9477 22 23.5 22.4477 23.5 23V25C23.5 25.5523 23.9477 26 24.5 26C25.0523 26 25.5 25.5523 25.5 25V23C25.5 22.4477 25.0523 22 24.5 22ZM23.5 28C23.5 27.4477 23.9477 27 24.5 27C25.0523 27 25.5 27.4477 25.5 28V30C25.5 30.5523 25.0523 31 24.5 31C23.9477 31 23.5 30.5523 23.5 30V28ZM24.5 32C23.9477 32 23.5 32.4477 23.5 33V35C23.5 35.5523 23.9477 36 24.5 36C25.0523 36 25.5 35.5523 25.5 35V33C25.5 32.4477 25.0523 32 24.5 32ZM33.3 13.4C34.6185 12.4111 36.5 13.3519 36.5 15V33C36.5 34.6481 34.6185 35.5888 33.3 34.6L27.3 30.1C26.7964 29.7223 26.5 29.1295 26.5 28.5V19.5C26.5 18.8705 26.7964 18.2777 27.3 17.9L33.3 13.4ZM34.5 15L28.5 19.5V28.5L34.5 33V15ZM12.5 15C12.5 13.3519 14.3815 12.4111 15.7 13.4L21.7 17.9C22.2036 18.2777 22.5 18.8705 22.5 19.5V28.5C22.5 29.1295 22.2036 29.7223 21.7 30.1L15.7 34.6C14.3815 35.5888 12.5 34.6481 12.5 33V15ZM20.5 19.5L14.5 15V33L20.5 28.5V19.5Z" fill="#CAC4D0"/>
</g>
<defs>
<clipPath id="clip0_2020_76">
<rect width="24" height="24" fill="white" transform="translate(12.5 12)"/>
</clipPath>
</defs>
</svg>
