<svg width="49" height="48" viewBox="0 0 49 48" fill="none" xmlns="http://www.w3.org/2000/svg">
<g clip-path="url(#clip0_2020_67)">
<path fill-rule="evenodd" clip-rule="evenodd" d="M24.5 33.5C29.7467 33.5 34 29.2467 34 24C34 18.7533 29.7467 14.5 24.5 14.5C22.1508 14.5 20.0008 15.3527 18.3425 16.7654L19.7397 18.1626C20.3297 18.7526 19.9802 19.7632 19.1517 19.8626L13.6193 20.5265C12.9759 20.6037 12.4301 20.0579 12.5073 19.4144L13.1712 13.8821C13.2706 13.0536 14.2811 12.7041 14.8712 13.2941L16.5702 14.9932C18.6847 13.1302 21.4604 12 24.5 12C31.1274 12 36.5 17.3726 36.5 24C36.5 30.6274 31.1274 36 24.5 36C23.6105 36 22.7436 35.9032 21.9093 35.7196C21.2348 35.5712 20.8814 34.8561 21.0998 34.201C21.3181 33.5459 22.0257 33.2007 22.7038 33.3304C23.2855 33.4417 23.8859 33.5 24.5 33.5ZM12.5 24L12.5001 23.9585V24.0415L12.5 24Z" fill="#CAC4D0"/>
</g>
<defs>
<clipPath id="clip0_2020_67">
<rect width="24" height="24" fill="white" transform="translate(12.5 12)"/>
</clipPath>
</defs>
</svg>
