<svg width="49" height="48" viewBox="0 0 49 48" fill="none" xmlns="http://www.w3.org/2000/svg">
<g clip-path="url(#clip0_2020_70)">
<path fill-rule="evenodd" clip-rule="evenodd" d="M24.5 33.5C19.2533 33.5 15 29.2467 15 24C15 18.7533 19.2533 14.5 24.5 14.5C26.8492 14.5 28.9992 15.3527 30.6575 16.7654L29.2603 18.1626C28.6703 18.7526 29.0198 19.7632 29.8483 19.8626L35.3807 20.5265C36.0241 20.6037 36.5699 20.0579 36.4927 19.4144L35.8288 13.8821C35.7294 13.0536 34.7189 12.7041 34.1288 13.2941L32.4298 14.9932C30.3153 13.1302 27.5396 12 24.5 12C17.8726 12 12.5 17.3726 12.5 24C12.5 30.6274 17.8726 36 24.5 36C25.3895 36 26.2564 35.9032 27.0907 35.7196C27.7652 35.5712 28.1186 34.8561 27.9002 34.201C27.6819 33.5459 26.9743 33.2007 26.2962 33.3304C25.7145 33.4417 25.1141 33.5 24.5 33.5ZM36.5 24L36.4999 23.9585V24.0415L36.5 24Z" fill="#CAC4D0"/>
</g>
<defs>
<clipPath id="clip0_2020_70">
<rect width="24" height="24" fill="white" transform="translate(12.5 12)"/>
</clipPath>
</defs>
</svg>
