<svg width="25" height="24" viewBox="0 0 25 24" fill="none" xmlns="http://www.w3.org/2000/svg">
<path fill-rule="evenodd" clip-rule="evenodd" d="M20.5 7.3343V18C20.5 18.5523 20.0523 19 19.5 19H5.5C4.94772 19 4.5 18.5523 4.5 18V7.3343C4.5 7.14967 4.64967 7 4.8343 7C6.54364 7 8.13989 6.14571 9.08807 4.72345L9.30696 4.39511C9.47152 4.14827 9.74856 4 10.0452 4H14.9548C15.2514 4 15.5285 4.14827 15.693 4.39511L15.9119 4.72345C16.8601 6.14571 18.4564 7 20.1657 7C20.3503 7 20.5 7.14967 20.5 7.3343ZM2.5 7.3343C2.5 6.0451 3.5451 5 4.8343 5C5.87494 5 6.84672 4.47992 7.42397 3.61405L7.64286 3.28571C8.17835 2.48247 9.07986 2 10.0452 2H14.9548C15.9201 2 16.8216 2.48247 17.3571 3.28571L17.576 3.61405C18.1533 4.47992 19.1251 5 20.1657 5C21.4549 5 22.5 6.0451 22.5 7.3343V18C22.5 19.6569 21.1569 21 19.5 21H5.5C3.84315 21 2.5 19.6569 2.5 18V7.3343ZM15.5 12C15.5 13.6569 14.1569 15 12.5 15C10.8431 15 9.5 13.6569 9.5 12C9.5 10.3431 10.8431 9 12.5 9C14.1569 9 15.5 10.3431 15.5 12ZM17.5 12C17.5 14.7614 15.2614 17 12.5 17C9.73858 17 7.5 14.7614 7.5 12C7.5 9.23858 9.73858 7 12.5 7C15.2614 7 17.5 9.23858 17.5 12Z" fill="#49454F"/>
</svg>
