<svg width="24" height="24" viewBox="0 0 24 24" fill="none" xmlns="http://www.w3.org/2000/svg">
<path fill-rule="evenodd" clip-rule="evenodd" d="M12 4.00024C9.79 4.00024 8 5.79024 8 8.00024C8 10.2102 9.79 12.0002 12 12.0002C14.21 12.0002 16 10.2102 16 8.00024C16 5.79024 14.21 4.00024 12 4.00024ZM14 8.00024C14 6.90024 13.1 6.00024 12 6.00024C10.9 6.00024 10 6.90024 10 8.00024C10 9.10024 10.9 10.0002 12 10.0002C13.1 10.0002 14 9.10024 14 8.00024ZM18 17.0002C17.8 16.2902 14.7 15.0002 12 15.0002C9.3 15.0002 6.2 16.2902 6 17.0102V18.0002H18V17.0002ZM4 17.0002C4 14.3402 9.33 13.0002 12 13.0002C14.67 13.0002 20 14.3402 20 17.0002V20.0002H4V17.0002Z" fill="#49454E"/>
</svg>
